<?xml version="1.0" ?>
<!-- Uploaded to: SVG Repo, www.svgrepo.com, Generator: SVG Repo Mixer Tools -->
<svg width="800px" height="800px" viewBox="0 0 64 64" id="svg5" version="1.1" xml:space="preserve" xmlns="http://www.w3.org/2000/svg" xmlns:svg="http://www.w3.org/2000/svg">
<defs id="defs2"/>
<g id="layer1" transform="translate(-96,-192)">
<path d="m 121.70508,196 a 1,1 0 0 0 -0.70703,0.29297 1,1 0 0 0 0,1.41406 L 127,203.70898 v 2.20118 l -3.30664,-3.18946 a 1,1 0 0 0 -0.71094,-0.27929 1,1 0 0 0 -0.70312,0.30468 1,1 0 0 0 0.0273,1.41407 L 127,208.68945 v 2.09766 l -6.85742,3.94141 -1.85547,-1.85547 0.11719,-6.52149 a 1,1 0 0 0 -0.98047,-1.01758 1,1 0 0 0 -1.01953,0.98243 l -0.082,4.59179 -2.26563,-2.26562 a 1,1 0 0 0 -0.70703,-0.29297 1,1 0 0 0 -0.70703,0.29297 1,1 0 0 0 0,1.41406 l 2.26562,2.26563 -4.59179,0.082 a 1,1 0 0 0 -0.98243,1.01953 1,1 0 0 0 1.01758,0.98047 l 6.52149,-0.11719 1.47265,1.47266 -1.84375,1.06054 A 1.0026626,0.99754044 0 0 0 116,217.68359 V 223 h -2.76367 l -4.79688,-4.97266 A 1,1 0 0 0 107.02734,218 1,1 0 0 0 107,219.41406 L 110.45898,223 h -2.75 l -6.00195,-6.00195 A 1,1 0 0 0 101,216.70508 a 1,1 0 0 0 -0.70703,0.29297 1,1 0 0 0 0,1.41406 l 5.58789,5.58789 -5.58789,5.58789 a 1,1 0 0 0 0,1.41406 1,1 0 0 0 1.41406,0 L 107.70898,225 h 2.21094 L 107,228.02734 a 1,1 0 0 0 0.0273,1.41211 1,1 0 0 0 1.41211,-0.0254 L 112.69922,225 H 116 v 5.31641 a 1.0026626,0.99754044 0 0 0 0.50195,0.86328 l 1.84375,1.06054 -1.47265,1.47266 -6.52149,-0.11719 a 1,1 0 0 0 -1.01758,0.98047 1,1 0 0 0 0.98243,1.01953 l 4.59179,0.082 -2.26562,2.26563 a 1,1 0 0 0 0,1.41406 1,1 0 0 0 1.41406,0 l 2.26563,-2.26562 0.082,4.59179 a 1,1 0 0 0 1.01953,0.98243 1,1 0 0 0 0.98047,-1.01758 l -0.11719,-6.52149 1.85547,-1.85547 6.85742,3.94141 v 1.53906 l -4.69336,4.52735 a 1,1 0 0 0 -0.0273,1.41406 1,1 0 0 0 1.41406,0.0273 L 127,241.53125 v 2.76563 l -6.00195,6.00195 a 1,1 0 0 0 0,1.41406 1,1 0 0 0 1.41406,0 L 128,246.125 l 5.58789,5.58789 a 1,1 0 0 0 1.41406,0 1,1 0 0 0 0,-1.41406 L 129,244.29688 v -2.76563 l 3.30664,3.18945 a 1,1 0 0 0 1.41406,-0.0273 1,1 0 0 0 -0.0273,-1.41406 L 129,238.75195 v -1.53906 l 6.85742,-3.94141 2.27344,2.27344 -0.11719,6.52149 a 1,1 0 0 0 0.98047,1.01757 1,1 0 0 0 1.01953,-0.98242 l 0.082,-4.59179 1.84766,1.84765 a 1,1 0 0 0 1.41406,0 1,1 0 0 0 0,-1.41406 l -1.84765,-1.84766 4.59179,-0.082 a 1,1 0 0 0 0.98242,-1.01953 1,1 0 0 0 -1.01757,-0.98047 l -6.52149,0.11719 -1.89062,-1.89063 1.84375,-1.06054 A 1.0026626,0.99754044 0 0 0 140,230.31641 V 225 h 3.30078 l 4.25977,4.41406 a 1,1 0 0 0 1.41211,0.0254 A 1,1 0 0 0 149,228.02734 L 146.08008,225 h 2.21094 l 6.00195,6.00195 a 1,1 0 0 0 1.41406,0 1,1 0 0 0 0,-1.41406 L 150.11914,224 l 5.58789,-5.58789 a 1,1 0 0 0 0,-1.41406 1,1 0 0 0 -0.70703,-0.29297 1,1 0 0 0 -0.70703,0.29297 L 148.29102,223 h -2.75 L 149,219.41406 A 1,1 0 0 0 148.97266,218 a 1,1 0 0 0 -0.71094,-0.2793 1,1 0 0 0 -0.70117,0.30664 L 142.76367,223 H 140 v -5.31641 a 1.0026626,0.99754044 0 0 0 -0.50195,-0.86328 l -1.84375,-1.06054 1.89062,-1.89063 6.52149,0.11719 a 1,1 0 0 0 1.01757,-0.98047 1,1 0 0 0 -0.98242,-1.01953 l -4.59179,-0.082 1.84765,-1.84766 a 1,1 0 0 0 0,-1.41406 1,1 0 0 0 -0.70703,-0.29297 1,1 0 0 0 -0.70703,0.29297 l -1.84766,1.84765 -0.082,-4.59179 a 1,1 0 0 0 -1.01953,-0.98242 1,1 0 0 0 -0.98047,1.01757 l 0.11719,6.52149 -2.27344,2.27344 L 129,210.78711 v -2.09766 l 4.69336,-4.52929 a 1,1 0 0 0 0.0273,-1.41407 1,1 0 0 0 -1.41406,-0.0254 L 129,205.91016 v -2.20118 l 6.00195,-6.00195 a 1,1 0 0 0 0,-1.41406 1,1 0 0 0 -1.41406,0 L 128,201.88086 122.41211,196.29297 A 1,1 0 0 0 121.70508,196 Z M 128,212.51758 l 9.99609,5.74219 v 11.48046 L 128,235.48242 l -7.60352,-4.36719 a 1,1 0 0 0 -0.0391,-0.0234 l -2.35351,-1.35157 V 218.2598 Z" id="path866" style="color:#000000;fill:#000000;fill-rule:evenodd;stroke-linecap:round;stroke-linejoin:round;stroke-miterlimit:4.1"/>
</g>
</svg>